<svg width="186" height="44" viewBox="0 0 186 44" fill="none" xmlns="http://www.w3.org/2000/svg">
<path d="M52.5058 12.0648H56.2557V31.8454H52.5049V12.0657L52.5058 12.0648ZM60.9234 31.9237V21.0786C60.9234 20.4679 60.9234 19.9329 60.8467 19.3987C60.8421 18.9366 60.791 18.4761 60.6942 18.0241L60.77 17.7953C61.306 17.5665 61.9953 17.3369 62.7605 17.1837C63.5335 16.9509 64.3283 16.7975 65.1326 16.7261C65.8897 16.5818 66.6582 16.5052 67.429 16.4973C68.3475 16.4973 69.266 16.573 70.1088 16.8018C70.9497 17.0306 71.7149 17.3369 72.4042 17.871C73.0927 18.3295 73.6296 19.0168 74.0113 19.9329C74.3938 20.7733 74.5472 21.919 74.5472 23.217V31.9237H70.8731V23.3701C70.8731 22.3775 70.7205 21.5371 70.4147 21.0029C70.1187 20.4885 69.6611 20.0858 69.1127 19.8572C68.5776 19.6284 67.8882 19.5509 67.1231 19.5509C66.5871 19.5509 65.9753 19.6275 65.4394 19.7797C64.9034 19.9329 64.3675 20.0094 63.9082 20.1625L64.5208 19.2456C64.5975 19.5518 64.6742 19.9329 64.75 20.3148C64.8267 20.7733 64.8267 21.2317 64.8267 21.7668V31.8472H60.9234V31.9237ZM81.6655 31.9229L76.461 17.2594V16.9541H80.3643L84.4978 30.0898H83.6559L87.8652 16.9541H91.6927V17.2594L86.2582 31.9229H81.6655ZM101.872 32.1517C100.495 32.1517 99.2702 31.9994 98.1992 31.6941C97.1273 31.3887 96.2087 30.9302 95.4436 30.2421C94.6784 29.6314 94.1424 28.7918 93.7599 27.7992C93.3773 26.8057 93.2239 25.6608 93.2239 24.2853C93.2239 22.682 93.5298 21.3074 94.1424 20.1617C94.7542 19.0159 95.5961 18.0998 96.668 17.4882C97.7399 16.8775 99.041 16.5721 100.571 16.5721C102.255 16.5721 103.633 16.9541 104.628 17.5648C105.699 18.2521 106.388 19.169 106.848 20.3905C107.307 21.6128 107.46 22.9873 107.46 24.5916L107.384 25.5077H95.5961V23.0639H103.786V22.8351C103.786 21.6893 103.48 20.8489 102.944 20.2382C102.408 19.6266 101.567 19.3213 100.495 19.3213C99.8768 19.3095 99.2676 19.4682 98.7343 19.7797C98.1534 20.1086 97.6964 20.6183 97.4331 21.2309C97.1273 21.9181 96.9739 22.8342 96.9739 24.0565V24.5916C96.9739 25.7365 97.204 26.6534 97.6632 27.3407C98.1225 28.0271 98.7343 28.4865 99.5003 28.7918C100.265 29.0972 101.184 29.2494 102.178 29.2494C103.097 29.2494 103.863 29.1737 104.551 29.0206C105.241 28.8675 105.776 28.6387 106.158 28.4099H106.388V31.4644C105.929 31.6932 105.241 31.8463 104.551 31.9994C103.662 32.095 102.767 32.1458 101.872 32.1517ZM110.293 28.1811H110.523C111.211 28.4865 111.976 28.7161 112.818 28.9449C113.737 29.1737 114.579 29.2503 115.497 29.2503C115.804 29.2503 116.187 29.2503 116.569 29.1746C116.952 29.0981 117.258 29.0981 117.64 28.9458C118.024 28.7927 118.253 28.6396 118.483 28.4108C118.712 28.182 118.789 27.7992 118.789 27.4181C118.789 26.8831 118.559 26.5012 118.176 26.2724C117.717 26.0436 117.105 25.8905 116.187 25.7373L114.885 25.5085C113.431 25.2797 112.283 24.8213 111.517 24.134C110.752 23.5224 110.369 22.5297 110.369 21.3083C110.369 20.3913 110.599 19.6275 111.058 18.8645C111.517 18.1007 112.283 17.5657 113.354 17.1072C114.426 16.6496 115.727 16.4965 117.411 16.4965C118.176 16.4965 118.941 16.573 119.554 16.6496C120.242 16.7253 120.855 16.8784 121.391 17.1072V20.1625H121.161C120.472 19.9337 119.86 19.7049 119.171 19.6275C118.559 19.5518 117.87 19.4753 117.181 19.4753C116.11 19.4753 115.345 19.6275 114.732 19.8572C114.119 20.086 113.813 20.5436 113.813 21.2317C113.813 21.6893 114.044 22.0713 114.503 22.3009C114.962 22.5297 115.574 22.6829 116.416 22.8351L117.717 23.0639C118.559 23.217 119.325 23.4467 120.09 23.7521C120.855 24.0574 121.314 24.5159 121.774 25.1266C122.233 25.7373 122.386 26.4246 122.386 27.3416C122.386 28.945 121.774 30.0907 120.626 30.8545C119.477 31.6184 117.717 32.0003 115.345 32.0003C114.426 32.0003 113.584 31.9237 112.666 31.7715C111.824 31.6184 110.982 31.4653 110.293 31.2365V28.1811ZM124.07 19.8572V16.8784H134.326V19.8572H124.07ZM132.489 32.076C131.188 32.076 130.116 31.8472 129.198 31.4653C128.279 31.0833 127.667 30.4726 127.208 29.7088C126.749 28.9449 126.52 27.8757 126.52 26.6543V12.9835H130.193V26.4246C130.193 27.3416 130.423 28.0289 130.882 28.4108C131.342 28.7927 132.03 29.0215 132.949 29.0215C133.331 29.0215 133.637 29.0215 134.02 28.9449C134.326 28.8684 134.632 28.7927 134.938 28.6396H135.168V31.6184C134.861 31.7706 134.479 31.8472 134.02 31.9237C133.485 32.076 133.025 32.076 132.489 32.076Z" fill="white"/>
<path d="M140.374 31.9185V12.0622H143.053V29.5513H151.549V31.8419H140.374V31.9185ZM155.99 14.278C155.53 14.278 155.148 14.1249 154.842 13.8204C154.535 13.5142 154.383 13.1322 154.383 12.5972C154.383 12.1396 154.535 11.682 154.842 11.3758C155.148 11.0704 155.53 10.9182 155.99 10.9182C156.449 10.9182 156.831 11.0704 157.138 11.3758C157.444 11.6811 157.597 12.063 157.597 12.5981C157.597 13.0557 157.444 13.5142 157.138 13.8195C156.908 14.1249 156.449 14.2771 155.99 14.2771V14.278ZM154.765 31.9194V20.2347C154.765 19.624 154.765 19.089 154.689 18.4782C154.684 18.0161 154.633 17.5555 154.535 17.1037L154.612 16.8749H157.291V31.8437H154.765V31.9194ZM160.35 19.0872V16.8731H169.534V19.0881H160.35V19.0872ZM167.927 32.0707C166.626 32.0707 165.631 31.8419 164.866 31.46C164.1 31.0781 163.565 30.4674 163.182 29.7035C162.799 28.9397 162.646 28.0993 162.646 27.1075V12.8251H165.172V26.8778C165.172 27.947 165.402 28.7109 165.861 29.1685C166.32 29.627 167.009 29.8558 168.004 29.8558C168.386 29.8558 168.769 29.7801 169.152 29.7035C169.534 29.627 169.841 29.5504 170.147 29.3982H170.376V31.5366C170.07 31.6888 169.764 31.7654 169.305 31.9185C168.922 32.0707 168.463 32.0707 167.927 32.0707ZM180.482 32.0725C179.105 32.0725 177.879 31.9194 176.808 31.5374C175.823 31.2627 174.926 30.7361 174.206 30.0098C173.517 29.3234 172.982 28.5595 172.675 27.566C172.369 26.5734 172.216 25.5042 172.216 24.2818C172.216 22.755 172.522 21.3805 173.058 20.2338C173.67 19.0898 174.435 18.1729 175.507 17.5613C176.578 16.9506 177.727 16.5686 179.181 16.5686C180.788 16.5686 182.09 16.874 183.085 17.5613C184.079 18.2486 184.769 19.1655 185.228 20.3113C185.687 21.5327 185.84 22.9073 185.763 24.435V25.1988H173.976V23.137H183.161V22.9082C183.161 21.5327 182.855 20.4635 182.166 19.7762C181.477 19.0898 180.482 18.707 179.181 18.707C178.415 18.707 177.727 18.8602 177.038 19.1646C176.349 19.4709 175.813 20.0816 175.431 20.8454C175.048 21.6093 174.818 22.6785 174.818 24.053V24.2062C174.818 25.5807 175.048 26.7265 175.584 27.566C176.043 28.4064 176.732 28.9406 177.65 29.2468C178.606 29.5986 179.616 29.7794 180.635 29.781C181.554 29.781 182.395 29.7044 183.008 29.4756C183.697 29.3225 184.156 29.0937 184.615 28.8649H184.845V31.1555C184.386 31.3843 183.85 31.5374 183.085 31.7662C182.319 31.995 181.477 32.0725 180.482 32.0725ZM18.905 7.2556L31.4578 14.5103V29.0215L18.8283 36.2762L6.2764 29.0224V14.5112L18.9059 7.25648L18.905 7.2556ZM18.905 0L15.7668 1.83304L3.1382 9.08864L0 10.9208V32.6867L3.1382 34.5198L15.7668 41.7754L18.905 43.6084L22.0432 41.7754L34.6718 34.5198L37.81 32.6867V10.8451L34.6718 9.01208L22.0432 1.83304L18.905 0Z" fill="#00A3FF"/>
<path d="M18.9068 14.5851L12.6304 18.2512V25.5068L18.9068 21.8407L25.1832 25.5068V18.2512L18.9068 14.5851Z" fill="white"/>
</svg>
